# xmcd
# Copyright (C) 1995-1998 Ti Kan
#
# Track frame offsets:
#       150
#       16317
#       32119
#       51371
#       68919
#       89124
#       104237
#       122140
#       141686
#       155566
#       172242
#       190754
#       202842
#
# Disc length: 2952 seconds
#
# Revision: 0
# Processed by: cddbd v1.5.2PL0 Copyright (c) Steve Scherf et al.
# Submitted via: CD-Transfer v1.0
#
DISCID=cb0b860d
DTITLE=Escovedo, Alejandro - A. Escovedo, C. Prophet
DYEAR=08
DGENRE=
TTITLE0=Always Friend
TTITLE1=Chelsea Hotel '78
TTITLE2=Sister Lost Soul
TTITLE3=Smoke
TTITLE4=Sensitive Boys
TTITLE5=People (We're Only Gonna Live So Long)
TTITLE6=Golden Bear
TTITLE7=Nun's Song
TTITLE8=Real As An Animal
TTITLE9=Hollywood Hills
TTITLE10=Swallows Of San Juan
TTITLE11=Chip N' Tony
TTITLE12=Slow Down
EXTD=
EXTT0=
EXTT1=
EXTT2=
EXTT3=
EXTT4=
EXTT5=
EXTT6=
EXTT7=
EXTT8=
EXTT9=
EXTT10=
EXTT11=
EXTT12=
PLAYORDER=
